<svg id="图层_1" data-name="图层 1" xmlns="http://www.w3.org/2000/svg" viewBox="0 0 823.5 154.22"><defs><style>.cls-1{fill:#fff;}</style></defs><title>nevoflux-about-wordmark</title><path class="cls-1" d="M306.67,142.78c7.48,0,14.13-.2,20.76.15,1.57.08,3.45,1.75,4.5,3.18q35.25,47.85,70.33,95.8c.67.93,1.41,1.81,2.76,3.52V142.81c7.55,0,14.65-.06,21.74.1.72,0,1.75,1.3,2,2.19a14.15,14.15,0,0,1,.16,4V285.58c-7.73,0-14.86.21-22-.18-1.49-.08-3.14-2.18-4.25-3.69q-34.65-47.37-69.18-94.82a7.36,7.36,0,0,0-3.27-2.63c0,2,0,4,0,6.06.14,29.83.2,59.66.51,89.48,0,4.46-1,6.38-5.79,5.93a78.13,78.13,0,0,0-13,0c-4.11.3-5.46-1.07-5.41-5.28.22-17.83.1-35.66.1-53.49l0-77Z" transform="translate(-306.6 -133.55)"/><path class="cls-1" d="M472.7,239.37c1.9,12.41,8.66,20,19.1,24.59,13.66,6,28.38,3,43.31-8.56l14.35,12.43c-7.27,9.46-16,15.19-26.74,17.71-21.41,5-41.17,1.9-57.77-13.4-18.68-17.22-21.53-49.84-6.72-72.19,14-21.1,42.77-29.38,66.47-18.59,19.85,9,28.31,25.73,29.58,46.72.68,11.26.6,11.28-10.38,11.29H472.7Zm.46-17.91h58c-1.76-14.89-13.44-24.54-28.88-24.22S474.34,207.82,473.16,221.46Z" transform="translate(-306.6 -133.55)"/><path class="cls-1" d="M780.77,232.44c-.06,32-23.25,55.31-55.09,55.26-31.68,0-55.2-23.94-54.59-56.3.63-33.31,24.91-54.59,54.89-54.53C757.78,176.94,780.82,200.32,780.77,232.44Zm-54.27-34.8c-14.08-.09-25.64,7.38-29.45,20.9a57.44,57.44,0,0,0-1.45,22.09c2.5,20.21,24.55,31.84,43.15,23.42,18.34-8.31,24.71-35.08,12.55-53C745.37,202.34,737.09,197.82,726.5,197.64Z" transform="translate(-306.6 -133.55)"/><path class="cls-1" d="M987.51,179.39c7.33,0,13.81.06,20.29,0,3.35,0,3.12,2.18,3.12,4.4q0,23,0,46c0,16.83-.13,33.66,0,50.49,0,4-.88,5.82-5.22,5.47a110.38,110.38,0,0,0-13-.07c-3.07.12-4.22-1.11-4.06-4.09.15-2.79,0-5.59,0-8-6,3.82-11.3,8.59-17.56,11-22.58,8.76-53.89.24-56.11-35.34-1.43-22.88-.27-45.92-.27-69.38h22.84v5.42c0,16.67,0,33.33,0,50a70.3,70.3,0,0,0,.75,10.95c3.17,19.45,24.12,27.07,39.62,14.56,7.28-5.89,9.42-13.88,9.47-22.67.09-17.5,0-35,0-52.5Z" transform="translate(-306.6 -133.55)"/><path class="cls-1" d="M1130.1,285.62c-9.41,0-17.38.18-25.34-.14-1.58-.06-3.53-1.68-4.57-3.11-7-9.55-13.74-19.25-20.59-28.89-.94-1.32-2-2.57-3.38-4.39-4.38,6-8.51,11.53-12.57,17.14-3.9,5.39-7.61,10.93-11.65,16.21-1.07,1.41-3,3-4.59,3-7.64.31-15.3.14-24.13.14,1.5-2.42,2.45-4.21,3.64-5.83,10.25-13.95,20.59-27.84,30.83-41.8,5.31-7.24,5.46-5.33.16-12.5q-15.44-20.89-30.88-41.77c-.76-1-1.4-2.15-2.71-4.21,9.21,0,17.59-.13,26,.15,1.19,0,2.5,2,3.44,3.27,7.45,10.21,14.82,20.48,22.69,31.38,2.17-2.92,4.12-5.49,6-8.1,5.66-7.83,11.22-15.73,17-23.47,1.07-1.43,2.94-3.11,4.51-3.18,7.63-.33,15.28-.15,24.49-.15l-38,51.72Z" transform="translate(-306.6 -133.55)"/><path class="cls-1" d="M853,180.39c0,6.27-.08,11.58,0,16.88.07,3.25-2,3.27-4.31,3.25-6.8,0-13.61,0-20.93,0v85c-7.42,0-14.36.15-21.27-.21-.77,0-2-3-2-4.67-.12-22.84-.06-45.67,0-68.5V200.63H787.94v-20h16c.5-6.58.63-12.55,1.45-18.42,4-28.24,32.36-34.2,51-24.11,2.29,1.24,3,2.55,2,5.16-2,5.07-3.66,10.27-5.43,15.35-3.85-1.44-7.26-3.25-10.89-4-6.84-1.35-11.67,1.61-13.14,8.36-1.18,5.45-1.26,11.13-1.9,17.36Z" transform="translate(-306.6 -133.55)"/><path class="cls-1" d="M558,179.38c7.81,0,14.8-.22,21.75.18,1.48.09,3.49,2.18,4.14,3.8,9.72,23.89,19.25,47.86,29.24,72.86,1.73-3.87,3.19-6.88,4.43-10,8.45-21,16.91-42,25.22-63.05,1.06-2.67,2.26-4,5.36-3.9,6.63.23,13.27.07,20.9.07-3.71,8.79-7,16.73-10.4,24.63-11,25.7-22.08,51.37-32.94,77.12-1.45,3.42-3.13,4.93-6.94,4.61-5.28-.45-11.8,1.45-15.58-1s-5-9-7-13.9q-18.43-43.42-36.75-86.9C558.89,182.72,558.61,181.42,558,179.38Z" transform="translate(-306.6 -133.55)"/><path class="cls-1" d="M893.09,285.6c-7.1,0-13.73.13-20.34-.13-1,0-2.16-1.74-2.93-2.88-.39-.58-.09-1.62-.09-2.45,0-46.47.11-92.93,0-139.4,0-4.86,1-7,6.33-6.5,5.57.49,11.21.11,17.07.11Z" transform="translate(-306.6 -133.55)"/></svg>